<?xml version="1.0" encoding="UTF-8" standalone="no"?>
<svg
   xmlns:dc="http://purl.org/dc/elements/1.1/"
   xmlns:cc="http://creativecommons.org/ns#"
   xmlns:rdf="http://www.w3.org/1999/02/22-rdf-syntax-ns#"
   xmlns:svg="http://www.w3.org/2000/svg"
   xmlns="http://www.w3.org/2000/svg"
   xmlns:sodipodi="http://sodipodi.sourceforge.net/DTD/sodipodi-0.dtd"
   xmlns:inkscape="http://www.inkscape.org/namespaces/inkscape"
   width="1300"
   height="1300"
   id="svg2"
   version="1.1"
   inkscape:version="0.91 r13725"
   sodipodi:docname="12x12 reversible square #31 of 42.svg"
   inkscape:export-filename="C:\Users\Cameron\OneDrive\Projects\Magic Squares\Fixed SVG\12x12 reversible square #31 of 42.png"
   inkscape:export-xdpi="600"
   inkscape:export-ydpi="600">
  <metadata
     id="metadata12">
    <rdf:RDF>
      <cc:Work
         rdf:about="">
        <dc:format>image/svg+xml</dc:format>
        <dc:type
           rdf:resource="http://purl.org/dc/dcmitype/StillImage" />
      </cc:Work>
    </rdf:RDF>
  </metadata>
  <defs
     id="defs10" />
  <sodipodi:namedview
     pagecolor="#ffffff"
     bordercolor="#666666"
     borderopacity="1"
     objecttolerance="10"
     gridtolerance="10"
     guidetolerance="10"
     inkscape:pageopacity="0"
     inkscape:pageshadow="2"
     inkscape:window-width="690"
     inkscape:window-height="480"
     id="namedview8"
     showgrid="false"
     inkscape:zoom="0.18153846"
     inkscape:cx="650"
     inkscape:cy="650"
     inkscape:window-x="0"
     inkscape:window-y="0"
     inkscape:window-maximized="0"
     inkscape:current-layer="svg2" />
  <g
     stroke="black"
     stroke-width="3"
     fill="black"
     id="g4" />
  <path
     pathLength="144"
     d=" M 100 100 L 100 200 L 200 100 L 200 200 L 300 100 L 300 200 L 100 300 L 100 400 L 200 300 L 200 400 L 300 300 L 300 400 L 100 500 L 100 600 L 200 500 L 200 600 L 300 500 L 300 600 L 100 700 L 100 800 L 200 700 L 200 800 L 300 700 L 300 800 L 100 900 L 100 1000 L 200 900 L 200 1000 L 300 900 L 300 1000 L 100 1100 L 100 1200 L 200 1100 L 200 1200 L 300 1100 L 300 1200 L 400 100 L 400 200 L 500 100 L 500 200 L 600 100 L 600 200 L 400 300 L 400 400 L 500 300 L 500 400 L 600 300 L 600 400 L 400 500 L 400 600 L 500 500 L 500 600 L 600 500 L 600 600 L 400 700 L 400 800 L 500 700 L 500 800 L 600 700 L 600 800 L 400 900 L 400 1000 L 500 900 L 500 1000 L 600 900 L 600 1000 L 400 1100 L 400 1200 L 500 1100 L 500 1200 L 600 1100 L 600 1200 L 700 100 L 700 200 L 800 100 L 800 200 L 900 100 L 900 200 L 700 300 L 700 400 L 800 300 L 800 400 L 900 300 L 900 400 L 700 500 L 700 600 L 800 500 L 800 600 L 900 500 L 900 600 L 700 700 L 700 800 L 800 700 L 800 800 L 900 700 L 900 800 L 700 900 L 700 1000 L 800 900 L 800 1000 L 900 900 L 900 1000 L 700 1100 L 700 1200 L 800 1100 L 800 1200 L 900 1100 L 900 1200 L 1000 100 L 1000 200 L 1100 100 L 1100 200 L 1200 100 L 1200 200 L 1000 300 L 1000 400 L 1100 300 L 1100 400 L 1200 300 L 1200 400 L 1000 500 L 1000 600 L 1100 500 L 1100 600 L 1200 500 L 1200 600 L 1000 700 L 1000 800 L 1100 700 L 1100 800 L 1200 700 L 1200 800 L 1000 900 L 1000 1000 L 1100 900 L 1100 1000 L 1200 900 L 1200 1000 L 1000 1100 L 1000 1200 L 1100 1100 L 1100 1200 L 1200 1100 L 1200 1200"
     id="path6" />
</svg>
