<?xml version="1.0" encoding="UTF-8" standalone="no"?>
<svg
   xmlns:dc="http://purl.org/dc/elements/1.1/"
   xmlns:cc="http://creativecommons.org/ns#"
   xmlns:rdf="http://www.w3.org/1999/02/22-rdf-syntax-ns#"
   xmlns:svg="http://www.w3.org/2000/svg"
   xmlns="http://www.w3.org/2000/svg"
   xmlns:sodipodi="http://sodipodi.sourceforge.net/DTD/sodipodi-0.dtd"
   xmlns:inkscape="http://www.inkscape.org/namespaces/inkscape"
   width="1000"
   height="1000"
   id="svg2"
   version="1.1"
   inkscape:version="0.91 r13725"
   sodipodi:docname="9x9 - Luna=369.svg"
   inkscape:export-filename="C:\Users\Cameron\OneDrive\Projects\Magic Squares\Fixed SVG\Pldaadsfa\9x9 - Luna=369.png"
   inkscape:export-xdpi="600"
   inkscape:export-ydpi="600">
  <metadata
     id="metadata12">
    <rdf:RDF>
      <cc:Work
         rdf:about="">
        <dc:format>image/svg+xml</dc:format>
        <dc:type
           rdf:resource="http://purl.org/dc/dcmitype/StillImage" />
      </cc:Work>
    </rdf:RDF>
  </metadata>
  <defs
     id="defs10">
    <marker
       inkscape:stockid="DotL"
       orient="auto"
       refY="0.0"
       refX="0.0"
       id="DotL"
       style="overflow:visible"
       inkscape:isstock="true">
      <path
         id="path4235"
         d="M -2.5,-1.0 C -2.5,1.7600000 -4.7400000,4.0 -7.5,4.0 C -10.260000,4.0 -12.5,1.7600000 -12.5,-1.0 C -12.5,-3.7600000 -10.260000,-6.0 -7.5,-6.0 C -4.7400000,-6.0 -2.5,-3.7600000 -2.5,-1.0 z "
         style="fill-rule:evenodd;stroke:#000000;stroke-width:1pt;stroke-opacity:1;fill:#000000;fill-opacity:1"
         transform="scale(0.8) translate(7.4, 1)" />
    </marker>
  </defs>
  <sodipodi:namedview
     pagecolor="#ffffff"
     bordercolor="#666666"
     borderopacity="1"
     objecttolerance="10"
     gridtolerance="10"
     guidetolerance="10"
     inkscape:pageopacity="0"
     inkscape:pageshadow="2"
     inkscape:window-width="1536"
     inkscape:window-height="801"
     id="namedview8"
     showgrid="false"
     inkscape:zoom="0.472"
     inkscape:cx="379.47903"
     inkscape:cy="316.88624"
     inkscape:window-x="-8"
     inkscape:window-y="-8"
     inkscape:window-maximized="1"
     inkscape:current-layer="svg2" />
  <g
     stroke="black"
     stroke-width="3"
     fill="black"
     id="g4" />
  <path
     pathLength="81"
     d=" M 600 500 L 700 600 L 800 700 L 900 800 L 100 900 L 200 100 L 300 200 L 400 300 L 500 400 L 700 400 L 800 500 L 900 600 L 100 700 L 200 800 L 300 900 L 400 100 L 500 200 L 600 300 L 800 300 L 900 400 L 100 500 L 200 600 L 300 700 L 400 800 L 500 900 L 600 100 L 700 200 L 900 200 L 100 300 L 200 400 L 300 500 L 400 600 L 500 700 L 600 800 L 700 900 L 800 100 L 100 100 L 200 200 L 300 300 L 400 400 L 500 500 L 600 600 L 700 700 L 800 800 L 900 900 L 200 900 L 300 100 L 400 200 L 500 300 L 600 400 L 700 500 L 800 600 L 900 700 L 100 800 L 300 800 L 400 900 L 500 100 L 600 200 L 700 300 L 800 400 L 900 500 L 100 600 L 200 700 L 400 700 L 500 800 L 600 900 L 700 100 L 800 200 L 900 300 L 100 400 L 200 500 L 300 600 L 500 600 L 600 700 L 700 800 L 800 900 L 900 100 L 100 200 L 200 300 L 300 400 L 400 500"
     id="path6" />
  <path
     inkscape:connector-curvature="0"
     pathLength="81"
     d="M 600,500 700,600 800,700 900,800 100,900 200,100 300,200 400,300 500,400 700,400 800,500 900,600 100,700 200,800 300,900 400,100 500,200 600,300 800,300 900,400 100,500 200,600 300,700 400,800 500,900 600,100 700,200 900,200 100,300 200,400 300,500 400,600 500,700 600,800 700,900 800,100 100,100 200,200 300,300 400,400 500,500 600,600 700,700 800,800 900,900 200,900 300,100 400,200 500,300 600,400 700,500 800,600 900,700 100,800 300,800 400,900 500,100 600,200 700,300 800,400 900,500 100,600 200,700 400,700 500,800 600,900 700,100 800,200 900,300 100,400 200,500 300,600 500,600 600,700 700,800 800,900 900,100 100,200 200,300 300,400 400,500"
     id="path6-2"
     style="fill:none;stroke:#ffffff;stroke-opacity:1;stroke-width:8.125;stroke-miterlimit:60;stroke-dasharray:none" />
  <path
     inkscape:connector-curvature="0"
     pathLength="81"
     d="m 600,500 99.99998,100 100,100 100,100 L 100,900 200,100 l 100,100 100,100 100,100 199.99998,0 100,100 100,100 L 100,700 200,800 300,900 400,100 l 100,100 100,100 199.99998,0 100,100 L 100,500 200,600 300,700 400,800 500,900 600,100 l 99.99998,100 200,0 L 100,300 l 100,100 100,100 100,100 100,100 100,100 99.99998,100 100,-800 L 100,100 l 100,100 100,100 100,100 100,100 100,100 99.99998,100 100,100 100,100 L 200,900 300,100 l 100,100 100,100 100,100 99.99998,100 100,100 100,100 L 100,800 l 200,0 100,100 100,-800 100,100 99.99998,100 100,100 100,100 L 100,600 l 100,100 200,0 100,100 100,100 99.99998,-800 100,100 100,100 L 100,400 l 100,100 100,100 200,0 100,100 99.99998,100 100,100 100,-800 L 100,200 200,300 300,400 400,500"
     id="path6-6"
     style="stroke:#000000;stroke-opacity:1;fill:none;stroke-width:2.5;stroke-miterlimit:4;stroke-dasharray:none;stroke-linejoin:round;stroke-linecap:round;marker-start:url(#DotL);marker-end:url(#DotL)" />
</svg>
